<svg xmlns="http://www.w3.org/2000/svg" viewBox="0 0 100 125" id="smartphone"><path d="M32.125 5.906c-3.7 0-6.688 2.723-6.688 6.094v76.5c0 3.37 2.988 6.094 6.688 6.094h35.25c3.7 0 6.688-2.723 6.688-6.094V12c0-3.37-2.988-6.094-6.688-6.094h-35.25zM63.969 8.22a1.25 1.25 0 1 1 0 2.5 1.25 1.25 0 0 1 0-2.5zm-18.438.656h8.438c.2 0 .375.181.375.406 0 .225-.176.406-.375.406H45.53c-.2 0-.375-.18-.375-.406 0-.225.176-.406.375-.406zm-13.375.438c.228 0 .407.178.407.406 0 .228-.179.437-.407.437-.228 0-.406-.21-.406-.437 0-.228.178-.406.406-.406zm1.438.03c.215 0 .406.16.406.376 0 .215-.19.406-.406.406-.216 0-.375-.19-.375-.406 0-.216.159-.375.375-.375zm-5.938 4.095h44.188v71.78H27.656v-71.78zm16.75 74.874h10.688c.74 0 1.343.471 1.343 1.063v1.219c0 .592-.603 1.062-1.343 1.062H44.406c-.74 0-1.343-.47-1.343-1.062v-1.219c0-.592.603-1.063 1.343-1.063z"></path></svg>